<svg version="1.1" id="Layer_1" xmlns="http://www.w3.org/2000/svg" xmlns:xlink="http://www.w3.org/1999/xlink" x="0px" y="0px"
	 width="100%" viewBox="0 0 128 128" enable-background="new 0 0 128 128" xml:space="preserve">
<path fill="#000000" opacity="1.000000" stroke="none" 
	d="
M67.000000,129.000000 
	C44.666668,129.000000 22.833334,129.000000 1.000000,129.000000 
	C1.000000,86.333336 1.000000,43.666668 1.000000,1.000000 
	C43.666668,1.000000 86.333336,1.000000 129.000000,1.000000 
	C129.000000,43.666668 129.000000,86.333336 129.000000,129.000000 
	C108.500000,129.000000 88.000000,129.000000 67.000000,129.000000 
M59.409744,114.297302 
	C59.409744,114.297302 59.502808,114.250900 60.225445,114.150650 
	C64.112465,109.963310 67.577690,112.097702 71.681015,115.332939 
	C72.338234,115.893303 72.958893,116.886047 73.658501,116.945206 
	C78.959343,117.393494 83.918686,116.388016 88.856705,112.517296 
	C90.728745,112.346657 92.683868,111.761421 94.450768,112.115479 
	C96.439095,112.513908 98.187225,114.151237 100.173141,114.508377 
	C101.676735,114.778770 103.780159,114.326050 104.872383,113.356606 
	C105.605247,112.706131 105.251587,110.552551 105.006966,109.136650 
	C104.463379,105.990189 103.719337,102.876099 102.989388,99.764671 
	C102.113518,96.031181 101.139778,92.320686 100.259850,88.588097 
	C99.489380,85.319847 98.466049,82.067085 98.135689,78.749603 
	C97.646866,73.840836 97.791183,68.872498 97.444656,63.945084 
	C97.113937,59.242393 96.027321,54.546665 96.155457,49.872066 
	C96.264061,45.909645 97.361824,41.900776 98.510010,38.058327 
	C100.078445,32.809509 99.884140,26.092985 107.943871,25.424324 
	C108.662575,25.364698 110.074226,22.126402 109.626373,21.541239 
	C107.730591,19.064205 105.253426,17.032135 102.710052,14.175342 
	C98.190948,13.192925 93.673889,11.455791 89.152145,11.443512 
	C84.760773,11.431585 80.364586,13.189322 75.327469,13.831590 
	C74.049820,11.051155 72.530067,8.614042 68.859093,9.063384 
	C66.151131,9.394850 63.325474,9.315578 60.757156,10.094731 
	C57.694733,11.023785 54.851101,12.674028 51.216125,14.304564 
	C49.235676,14.184764 46.773762,14.779208 45.356541,13.823871 
	C38.530109,9.222229 32.287346,11.219832 25.290142,14.953506 
	C24.176025,16.052294 22.793041,16.986935 22.001848,18.282873 
	C20.160725,21.298544 18.071718,24.374268 24.253458,25.300978 
	C26.007273,25.563896 28.227297,27.961113 28.816528,29.827002 
	C31.179710,37.310383 33.034111,44.957550 34.942318,52.577793 
	C35.199493,53.604782 34.749805,54.834728 34.528786,55.951164 
	C33.370667,61.801109 31.927341,67.609413 31.104950,73.504982 
	C30.670076,76.622505 32.238617,80.218468 31.255707,83.020752 
	C28.932076,89.645454 25.942417,95.979347 26.931288,103.294678 
	C27.045406,104.138870 26.464069,105.165939 25.991030,105.984459 
	C24.393167,108.749283 22.363445,112.207176 25.378826,114.299927 
	C27.023079,115.441078 30.735001,113.615891 33.509670,113.102898 
	C33.984722,113.015076 34.604393,112.939156 34.872051,112.619164 
	C37.538300,109.431702 39.766071,111.232605 42.334290,113.826469 
	C44.296013,114.589172 46.222832,115.463448 48.227013,116.090431 
	C51.950485,117.255295 55.728771,118.384720 59.611195,114.789375 
	C59.519207,114.601181 59.427216,114.412979 59.409744,114.297302 
z"/>
<path fill="#EC8AD1" opacity="1.000000" stroke="none" 
	d="
M102.988770,14.837425 
	C105.253426,17.032135 107.730591,19.064205 109.626373,21.541239 
	C110.074226,22.126402 108.662575,25.364698 107.943871,25.424324 
	C99.884140,26.092985 100.078445,32.809509 98.510010,38.058327 
	C97.361824,41.900776 96.264061,45.909645 96.155457,49.872066 
	C96.027321,54.546665 97.113937,59.242393 97.444656,63.945084 
	C97.791183,68.872498 97.646866,73.840836 98.135689,78.749603 
	C98.466049,82.067085 99.489380,85.319847 100.259850,88.588097 
	C101.139778,92.320686 102.113518,96.031181 102.989388,99.764671 
	C103.719337,102.876099 104.463379,105.990189 105.006966,109.136650 
	C105.251587,110.552551 105.605247,112.706131 104.872383,113.356606 
	C103.780159,114.326050 101.676735,114.778770 100.173141,114.508377 
	C98.187225,114.151237 96.439095,112.513908 94.450768,112.115479 
	C92.683868,111.761421 90.728745,112.346657 88.503967,112.298782 
	C86.659744,109.675972 85.168259,107.271660 83.752281,104.496185 
	C83.287758,102.356689 82.747742,100.588371 82.256683,98.420822 
	C82.353798,92.912132 82.378731,87.802299 82.457787,82.693314 
	C82.516182,78.919365 82.656738,75.146767 82.739792,71.373108 
	C82.851219,66.309837 83.918846,61.028343 82.847664,56.226044 
	C80.287689,44.749245 82.606216,34.366032 88.728249,24.901104 
	C90.763962,21.753794 95.037201,20.035866 98.333069,17.729574 
	C99.827713,16.683699 101.433434,15.796566 102.988770,14.837425 
z"/>
<path fill="#EC8AD1" opacity="1.000000" stroke="none" 
	d="
M42.001205,113.174698 
	C39.766071,111.232605 37.538300,109.431702 34.872051,112.619164 
	C34.604393,112.939156 33.984722,113.015076 33.509670,113.102898 
	C30.735001,113.615891 27.023079,115.441078 25.378826,114.299927 
	C22.363445,112.207176 24.393167,108.749283 25.991030,105.984459 
	C26.464069,105.165939 27.045406,104.138870 26.931288,103.294678 
	C25.942417,95.979347 28.932076,89.645454 31.255707,83.020752 
	C32.238617,80.218468 30.670076,76.622505 31.104950,73.504982 
	C31.927341,67.609413 33.370667,61.801109 34.528786,55.951164 
	C34.749805,54.834728 35.199493,53.604782 34.942318,52.577793 
	C33.034111,44.957550 31.179710,37.310383 28.816528,29.827002 
	C28.227297,27.961113 26.007273,25.563896 24.253458,25.300978 
	C18.071718,24.374268 20.160725,21.298544 22.001848,18.282873 
	C22.793041,16.986935 24.176025,16.052294 25.779781,15.214893 
	C29.527979,16.850283 33.313927,17.573618 35.952621,19.712378 
	C46.639488,28.374475 49.591560,40.295765 47.540211,53.222099 
	C46.450077,60.091446 45.467289,66.539940 47.705662,73.321800 
	C48.498280,75.723297 47.933769,78.598381 47.862873,81.253891 
	C47.712616,86.881790 47.479553,92.507477 47.034275,98.380615 
	C46.621902,100.710648 46.455704,102.794136 46.092056,105.180542 
	C44.596806,108.047211 43.299007,110.610954 42.001205,113.174698 
z"/>
<path fill="#EC87D0" opacity="1.000000" stroke="none" 
	d="
M51.912682,14.011839 
	C54.851101,12.674028 57.694733,11.023785 60.757156,10.094731 
	C63.325474,9.315578 66.151131,9.394850 68.859093,9.063384 
	C72.530067,8.614042 74.049820,11.051155 75.680313,14.395815 
	C75.717339,19.336794 75.667007,23.753462 75.016487,28.079887 
	C74.255219,33.142776 72.290833,38.095516 72.056534,43.152020 
	C71.581863,53.395878 71.921562,63.677471 71.741455,74.221840 
	C69.375664,77.148247 67.193932,79.796310 64.768845,82.739754 
	C63.403866,81.062965 62.172676,79.550529 60.877266,77.676712 
	C59.873863,73.698341 58.290771,70.108658 58.136040,66.458412 
	C57.855846,59.848274 59.115917,53.132843 58.458447,46.589436 
	C57.735214,39.391609 55.463512,32.359482 54.098339,25.210878 
	C53.580711,22.500360 53.836445,19.649828 53.477230,16.897367 
	C53.345074,15.884710 52.456326,14.970794 51.912682,14.011839 
z"/>
<path fill="#B65A9D" opacity="1.000000" stroke="none" 
	d="
M51.564404,14.158201 
	C52.456326,14.970794 53.345074,15.884710 53.477230,16.897367 
	C53.836445,19.649828 53.580711,22.500360 54.098339,25.210878 
	C55.463512,32.359482 57.735214,39.391609 58.458447,46.589436 
	C59.115917,53.132843 57.855846,59.848274 58.136040,66.458412 
	C58.290771,70.108658 59.873863,73.698341 60.558624,77.766960 
	C60.202717,79.325050 60.020462,80.431061 60.014313,81.538055 
	C59.992451,85.472763 60.866192,89.650444 59.813667,93.275276 
	C58.736580,96.984695 51.899452,99.007317 47.280449,98.134071 
	C47.479553,92.507477 47.712616,86.881790 47.862873,81.253891 
	C47.933769,78.598381 48.498280,75.723297 47.705662,73.321800 
	C45.467289,66.539940 46.450077,60.091446 47.540211,53.222099 
	C49.591560,40.295765 46.639488,28.374475 35.952621,19.712378 
	C33.313927,17.573618 29.527979,16.850283 26.137337,15.125368 
	C32.287346,11.219832 38.530109,9.222229 45.356541,13.823871 
	C46.773762,14.779208 49.235676,14.184764 51.564404,14.158201 
z"/>
<path fill="#B65A9D" opacity="1.000000" stroke="none" 
	d="
M71.925514,73.943504 
	C71.921562,63.677471 71.581863,53.395878 72.056534,43.152020 
	C72.290833,38.095516 74.255219,33.142776 75.016487,28.079887 
	C75.667007,23.753462 75.717339,19.336794 76.001831,14.564987 
	C80.364586,13.189322 84.760773,11.431585 89.152145,11.443512 
	C93.673889,11.455791 98.190948,13.192925 102.849411,14.506382 
	C101.433434,15.796566 99.827713,16.683699 98.333069,17.729574 
	C95.037201,20.035866 90.763962,21.753794 88.728249,24.901104 
	C82.606216,34.366032 80.287689,44.749245 82.847664,56.226044 
	C83.918846,61.028343 82.851219,66.309837 82.739792,71.373108 
	C82.656738,75.146767 82.516182,78.919365 82.457787,82.693314 
	C82.378731,87.802299 82.353798,92.912132 81.846176,98.462151 
	C70.257858,97.711708 65.961624,88.848190 71.629219,78.960762 
	C72.481796,77.473389 75.366592,75.802322 71.925514,73.943504 
z"/>
<path fill="#EA89CF" opacity="1.000000" stroke="none" 
	d="
M71.000374,114.869583 
	C67.577690,112.097702 64.112465,109.963310 59.679436,113.799774 
	C58.668186,109.931107 58.202946,106.413315 57.948864,102.627777 
	C60.779205,100.387665 63.398392,98.415298 66.126793,96.360687 
	C67.567070,97.894371 69.915024,100.394608 72.201164,103.339035 
	C71.759682,107.478676 71.380028,111.174133 71.000374,114.869583 
z"/>
<path fill="#B55D9D" opacity="1.000000" stroke="none" 
	d="
M71.340698,115.101257 
	C71.380028,111.174133 71.759682,107.478676 72.532524,103.428627 
	C76.279907,105.047623 79.671570,106.796616 83.676781,104.867355 
	C85.168259,107.271660 86.659744,109.675972 88.160583,112.508171 
	C83.918686,116.388016 78.959343,117.393494 73.658501,116.945206 
	C72.958893,116.886047 72.338234,115.893303 71.340698,115.101257 
z"/>
<path fill="#B55D9D" opacity="1.000000" stroke="none" 
	d="
M57.737709,102.895531 
	C58.202946,106.413315 58.668186,109.931107 59.318115,113.849899 
	C59.502808,114.250900 59.409744,114.297302 59.167046,114.264191 
	C58.824516,114.321693 58.625694,114.468262 58.640343,114.494186 
	C58.770111,114.723801 58.937717,114.932030 59.094151,115.146576 
	C55.728771,118.384720 51.950485,117.255295 48.227013,116.090431 
	C46.222832,115.463448 44.296013,114.589172 42.167747,113.500580 
	C43.299007,110.610954 44.596806,108.047211 46.435005,105.223297 
	C50.562840,104.273941 54.150272,103.584732 57.737709,102.895531 
z"/>
<path fill="#EA89CF" opacity="1.000000" stroke="none" 
	d="
M59.352673,114.967972 
	C58.937717,114.932030 58.770111,114.723801 58.640343,114.494186 
	C58.625694,114.468262 58.824516,114.321693 59.129784,114.227921 
	C59.427216,114.412979 59.519207,114.601181 59.352673,114.967972 
z"/>
<path fill="#9A4283" opacity="1.000000" stroke="none" 
	d="
M57.948864,102.627777 
	C54.150272,103.584732 50.562840,104.273941 46.632454,104.920387 
	C46.455704,102.794136 46.621902,100.710648 47.034279,98.380615 
	C51.899452,99.007317 58.736580,96.984695 59.813667,93.275276 
	C60.866192,89.650444 59.992451,85.472763 60.014313,81.538055 
	C60.020462,80.431061 60.202717,79.325050 60.622841,78.128342 
	C62.172676,79.550529 63.403866,81.062965 64.768845,82.739754 
	C67.193932,79.796310 69.375664,77.148247 71.741455,74.221840 
	C75.366592,75.802322 72.481796,77.473389 71.629219,78.960762 
	C65.961624,88.848190 70.257858,97.711708 81.797211,98.861374 
	C82.747742,100.588371 83.287758,102.356689 83.752281,104.496185 
	C79.671570,106.796616 76.279907,105.047623 72.594345,102.984436 
	C69.915024,100.394608 67.567070,97.894371 66.126793,96.360687 
	C63.398392,98.415298 60.779205,100.387665 57.948864,102.627777 
z"/>
</svg>